solid OpenSCAD_Model
  facet normal -1 0 0
    outer loop
      vertex 0 0 0
      vertex 0 26 5.2
      vertex 0 26 0
    endloop
  endfacet
  facet normal -1 -0 0
    outer loop
      vertex 0 26 5.2
      vertex 0 0 0
      vertex 0 0 5.2
    endloop
  endfacet
  facet normal 0 0 1
    outer loop
      vertex 61 26 5.2
      vertex 1 25 5.2
      vertex 61 25 5.2
    endloop
  endfacet
  facet normal 0 0 1
    outer loop
      vertex 1 25 5.2
      vertex 0 26 5.2
      vertex 1 1 5.2
    endloop
  endfacet
  facet normal -0 0 1
    outer loop
      vertex 0 26 5.2
      vertex 1 25 5.2
      vertex 61 26 5.2
    endloop
  endfacet
  facet normal -0 0 1
    outer loop
      vertex 1 1 5.2
      vertex 61 0 5.2
      vertex 61 1 5.2
    endloop
  endfacet
  facet normal 0 0 1
    outer loop
      vertex 1 1 5.2
      vertex 0 0 5.2
      vertex 61 0 5.2
    endloop
  endfacet
  facet normal 0 0 1
    outer loop
      vertex 0 0 5.2
      vertex 1 1 5.2
      vertex 0 26 5.2
    endloop
  endfacet
  facet normal 1 0 0
    outer loop
      vertex 61 1 5.2
      vertex 61 0 5.2
      vertex 61 1 3.7
    endloop
  endfacet
  facet normal 1 0 0
    outer loop
      vertex 61 2.2 3.7
      vertex 61 1 3.7
      vertex 61 2.2 1.2
    endloop
  endfacet
  facet normal 1 0 0
    outer loop
      vertex 61 25 3.7
      vertex 61 26 5.2
      vertex 61 25 5.2
    endloop
  endfacet
  facet normal 1 0 0
    outer loop
      vertex 61 26 5.2
      vertex 61 25 3.7
      vertex 61 26 0
    endloop
  endfacet
  facet normal 1 0 0
    outer loop
      vertex 61 23.8 1.2
      vertex 61 25 3.7
      vertex 61 23.8 3.7
    endloop
  endfacet
  facet normal 1 0 0
    outer loop
      vertex 61 25 3.7
      vertex 61 23.8 1.2
      vertex 61 26 0
    endloop
  endfacet
  facet normal 1 -0 0
    outer loop
      vertex 61 2.2 1.2
      vertex 61 26 0
      vertex 61 23.8 1.2
    endloop
  endfacet
  facet normal 1 0 0
    outer loop
      vertex 61 0 0
      vertex 61 1 3.7
      vertex 61 0 5.2
    endloop
  endfacet
  facet normal 1 0 0
    outer loop
      vertex 61 2.2 1.2
      vertex 61 0 0
      vertex 61 26 0
    endloop
  endfacet
  facet normal 1 0 0
    outer loop
      vertex 61 1 3.7
      vertex 61 0 0
      vertex 61 2.2 1.2
    endloop
  endfacet
  facet normal 0 0 -1
    outer loop
      vertex 0 0 0
      vertex 61 26 0
      vertex 61 0 0
    endloop
  endfacet
  facet normal -0 0 -1
    outer loop
      vertex 61 26 0
      vertex 0 0 0
      vertex 0 26 0
    endloop
  endfacet
  facet normal 0 -1 0
    outer loop
      vertex 0 0 0
      vertex 61 0 5.2
      vertex 0 0 5.2
    endloop
  endfacet
  facet normal 0 -1 -0
    outer loop
      vertex 61 0 5.2
      vertex 0 0 0
      vertex 61 0 0
    endloop
  endfacet
  facet normal 0 1 -0
    outer loop
      vertex 61 26 0
      vertex 0 26 5.2
      vertex 61 26 5.2
    endloop
  endfacet
  facet normal 0 1 0
    outer loop
      vertex 0 26 5.2
      vertex 61 26 0
      vertex 0 26 0
    endloop
  endfacet
  facet normal 1 -0 0
    outer loop
      vertex 2.2 2.2 3.7
      vertex 2.2 23.8 1.2
      vertex 2.2 23.8 3.7
    endloop
  endfacet
  facet normal 1 0 0
    outer loop
      vertex 2.2 23.8 1.2
      vertex 2.2 2.2 3.7
      vertex 2.2 2.2 1.2
    endloop
  endfacet
  facet normal -0 0 1
    outer loop
      vertex 2.2 23.8 1.2
      vertex 61 2.2 1.2
      vertex 61 23.8 1.2
    endloop
  endfacet
  facet normal 0 0 1
    outer loop
      vertex 61 2.2 1.2
      vertex 2.2 23.8 1.2
      vertex 2.2 2.2 1.2
    endloop
  endfacet
  facet normal 0 1 -0
    outer loop
      vertex 61 2.2 1.2
      vertex 2.2 2.2 3.7
      vertex 61 2.2 3.7
    endloop
  endfacet
  facet normal 0 1 0
    outer loop
      vertex 2.2 2.2 3.7
      vertex 61 2.2 1.2
      vertex 2.2 2.2 1.2
    endloop
  endfacet
  facet normal 0 -1 0
    outer loop
      vertex 2.2 23.8 1.2
      vertex 61 23.8 3.7
      vertex 2.2 23.8 3.7
    endloop
  endfacet
  facet normal 0 -1 -0
    outer loop
      vertex 61 23.8 3.7
      vertex 2.2 23.8 1.2
      vertex 61 23.8 1.2
    endloop
  endfacet
  facet normal 1 -0 0
    outer loop
      vertex 1 1 5.2
      vertex 1 25 3.7
      vertex 1 25 5.2
    endloop
  endfacet
  facet normal 1 0 0
    outer loop
      vertex 1 25 3.7
      vertex 1 1 5.2
      vertex 1 1 3.7
    endloop
  endfacet
  facet normal 0 -1 0
    outer loop
      vertex 1 25 3.7
      vertex 61 25 5.2
      vertex 1 25 5.2
    endloop
  endfacet
  facet normal 0 -1 -0
    outer loop
      vertex 61 25 5.2
      vertex 1 25 3.7
      vertex 61 25 3.7
    endloop
  endfacet
  facet normal 0 0 1
    outer loop
      vertex 61 25 3.7
      vertex 2.2 23.8 3.7
      vertex 61 23.8 3.7
    endloop
  endfacet
  facet normal 0 0 1
    outer loop
      vertex 2.2 23.8 3.7
      vertex 1 25 3.7
      vertex 2.2 2.2 3.7
    endloop
  endfacet
  facet normal -0 0 1
    outer loop
      vertex 1 25 3.7
      vertex 2.2 23.8 3.7
      vertex 61 25 3.7
    endloop
  endfacet
  facet normal -0 0 1
    outer loop
      vertex 2.2 2.2 3.7
      vertex 61 1 3.7
      vertex 61 2.2 3.7
    endloop
  endfacet
  facet normal 0 0 1
    outer loop
      vertex 2.2 2.2 3.7
      vertex 1 1 3.7
      vertex 61 1 3.7
    endloop
  endfacet
  facet normal 0 0 1
    outer loop
      vertex 1 1 3.7
      vertex 2.2 2.2 3.7
      vertex 1 25 3.7
    endloop
  endfacet
  facet normal 0 1 -0
    outer loop
      vertex 61 1 3.7
      vertex 1 1 5.2
      vertex 61 1 5.2
    endloop
  endfacet
  facet normal 0 1 0
    outer loop
      vertex 1 1 5.2
      vertex 61 1 3.7
      vertex 1 1 3.7
    endloop
  endfacet
endsolid OpenSCAD_Model
